<svg width="63" height="48" viewBox="0 0 63 48" fill="none" xmlns="http://www.w3.org/2000/svg">
<g clip-path="url(#clip0_38_7097)">
<path d="M33.1102 6.52527H30.5957V15.6793H33.1102V6.52527Z" fill="white"/>
<path d="M31.6236 6.73682H30.9043V7.4921H31.6236V6.73682Z" fill="#19417C"/>
<path d="M32.8052 6.73682H32.0859V7.4921H32.8052V6.73682Z" fill="#19417C"/>
<path d="M31.6236 8.2699H30.9043V9.02518H31.6236V8.2699Z" fill="#19417C"/>
<path d="M32.8052 8.2699H32.0859V9.02518H32.8052V8.2699Z" fill="#19417C"/>
<path d="M31.6236 9.80481H30.9043V10.5601H31.6236V9.80481Z" fill="#19417C"/>
<path d="M32.8052 9.80481H32.0859V10.5601H32.8052V9.80481Z" fill="#19417C"/>
<path d="M31.6236 11.3385H30.9043V12.0938H31.6236V11.3385Z" fill="#19417C"/>
<path d="M32.8052 11.3385H32.0859V12.0938H32.8052V11.3385Z" fill="#19417C"/>
<path d="M31.6236 12.8728H30.9043V13.6269H31.6236V12.8728Z" fill="#19417C"/>
<path d="M32.8052 12.8728H32.0859V13.6269H32.8052V12.8728Z" fill="#19417C"/>
<path d="M31.6236 14.4077H30.9043V15.163H31.6236V14.4077Z" fill="#19417C"/>
<path d="M32.8052 14.4077H32.0859V15.163H32.8052V14.4077Z" fill="#19417C"/>
<path d="M31.6236 14.4077H30.9043V15.163H31.6236V14.4077Z" fill="#19417C"/>
<path d="M36.6317 8.40186H34.1172V17.3433H36.6317V8.40186Z" fill="white"/>
<path d="M35.145 8.69385H34.4258V9.44913H35.145V8.69385Z" fill="#19417C"/>
<path d="M36.3286 8.69385H35.6094V9.44913H36.3286V8.69385Z" fill="#19417C"/>
<path d="M35.145 10.2142H34.4258V10.9695H35.145V10.2142Z" fill="#19417C"/>
<path d="M36.3286 10.2142H35.6094V10.9695H36.3286V10.2142Z" fill="#19417C"/>
<path d="M35.145 11.7349H34.4258V12.4901H35.145V11.7349Z" fill="#19417C"/>
<path d="M36.3286 11.7349H35.6094V12.4901H36.3286V11.7349Z" fill="#19417C"/>
<path d="M35.145 13.256H34.4258V14.0113H35.145V13.256Z" fill="#19417C"/>
<path d="M36.3286 13.256H35.6094V14.0113H36.3286V13.256Z" fill="#19417C"/>
<path d="M35.145 14.7753H34.4258V15.5306H35.145V14.7753Z" fill="#19417C"/>
<path d="M36.3286 14.7753H35.6094V15.5306H36.3286V14.7753Z" fill="#19417C"/>
<path d="M36.3286 16.2964H35.6094V17.0517H36.3286V16.2964Z" fill="#19417C"/>
<path d="M35.145 16.2964H34.4258V17.0517H35.145V16.2964Z" fill="#19417C"/>
<path d="M27.3797 23.5537H24.8652V32.4951H27.3797V23.5537Z" fill="white"/>
<path d="M25.8931 23.7653H25.1738V24.5205H25.8931V23.7653Z" fill="#19417C"/>
<path d="M27.0747 23.7653H26.3555V24.5205H27.0747V23.7653Z" fill="#19417C"/>
<path d="M25.8931 25.299H25.1738V26.0542H25.8931V25.299Z" fill="#19417C"/>
<path d="M27.0747 25.299H26.3555V26.0542H27.0747V25.299Z" fill="#19417C"/>
<path d="M25.8931 26.834H25.1738V27.5893H25.8931V26.834Z" fill="#19417C"/>
<path d="M27.0747 26.834H26.3555V27.5893H27.0747V26.834Z" fill="#19417C"/>
<path d="M25.8931 28.3683H25.1738V29.1236H25.8931V28.3683Z" fill="#19417C"/>
<path d="M27.0747 28.3683H26.3555V29.1236H27.0747V28.3683Z" fill="#19417C"/>
<path d="M25.8931 29.902H25.1738V30.6573H25.8931V29.902Z" fill="#19417C"/>
<path d="M27.0747 29.902H26.3555V30.6573H27.0747V29.902Z" fill="#19417C"/>
<path d="M25.8931 31.4369H25.1738V32.1922H25.8931V31.4369Z" fill="#19417C"/>
<path d="M27.0747 31.4369H26.3555V32.1922H27.0747V31.4369Z" fill="#19417C"/>
<path d="M25.8931 31.4369H25.1738V32.1922H25.8931V31.4369Z" fill="#19417C"/>
<path d="M30.9032 22.0784H28.3887V31.0198H30.9032V22.0784Z" fill="white"/>
<path d="M29.4146 22.2899H28.6953V23.0452H29.4146V22.2899Z" fill="#19417C"/>
<path d="M30.5982 22.2899H29.8789V23.0452H30.5982V22.2899Z" fill="#19417C"/>
<path d="M29.4146 23.8248H28.6953V24.5801H29.4146V23.8248Z" fill="#19417C"/>
<path d="M30.5982 23.8248H29.8789V24.5801H30.5982V23.8248Z" fill="#19417C"/>
<path d="M29.4146 25.3585H28.6953V26.1138H29.4146V25.3585Z" fill="#19417C"/>
<path d="M30.5982 25.3585H29.8789V26.1138H30.5982V25.3585Z" fill="#19417C"/>
<path d="M29.4146 26.8928H28.6953V27.6481H29.4146V26.8928Z" fill="#19417C"/>
<path d="M30.5982 26.8928H29.8789V27.6481H30.5982V26.8928Z" fill="#19417C"/>
<path d="M29.4146 28.4279H28.6953V29.1831H29.4146V28.4279Z" fill="#19417C"/>
<path d="M30.5982 28.4279H29.8789V29.1831H30.5982V28.4279Z" fill="#19417C"/>
<path d="M29.4146 29.9615H28.6953V30.7168H29.4146V29.9615Z" fill="#19417C"/>
<path d="M30.5982 29.9615H29.8789V30.7168H30.5982V29.9615Z" fill="#19417C"/>
<path d="M29.4146 29.9615H28.6953V30.7168H29.4146V29.9615Z" fill="#19417C"/>
<path d="M47.7533 17.6574H46.3462C46.3462 21.7603 44.6869 25.4624 41.9992 28.1523C39.3092 30.8412 35.6072 32.4993 31.5042 32.5005C27.4013 32.5005 23.6993 30.8412 21.0093 28.1523C18.3216 25.4624 16.6623 21.7603 16.6623 17.6574C16.6635 13.5544 18.3216 9.85239 21.0093 7.16242C23.6993 4.47477 27.4013 2.81547 31.5042 2.81547C35.6072 2.81663 39.3092 4.47477 41.9992 7.16242C44.6869 9.85239 46.3462 13.5544 46.3462 17.6574H47.7533H49.1605C49.1605 12.7864 47.1816 8.36274 43.9885 5.17195C40.7977 1.97884 36.3741 -0.00116146 31.5031 5.11152e-07C26.6321 -0.00116146 22.2084 1.97884 19.0177 5.17195C15.8245 8.36274 13.8457 12.7864 13.8457 17.6574C13.8445 22.5284 15.8245 26.952 19.0177 30.1428C22.2084 33.3359 26.6321 35.3148 31.5031 35.3148C36.3741 35.3159 40.7977 33.3359 43.9885 30.1428C47.1816 26.952 49.1605 22.5284 49.1605 17.6574H47.7533Z" fill="white"/>
<path d="M19.9746 27.0054C22.8842 30.7144 26.9279 30.7237 30.2395 30.7237C34.4854 30.7237 36.9662 28.4822 36.9662 25.238C36.9662 22.2808 35.2488 20.5157 30.9076 18.8936C25.6602 16.9857 22.4159 14.219 22.4159 9.73493C22.4159 4.72565 26.5665 1.005 32.8156 1.005C36.0598 1.005 38.493 1.76842 39.8758 2.57948L41.9987 7.16348C40.6241 5.93411 37.8318 4.4398 32.6715 4.4398C28.2827 4.4398 26.613 7.06355 26.613 9.25852C26.613 12.2634 28.5686 13.7426 33.005 15.46C38.443 17.5585 41.1621 20.1823 41.1621 24.9057C41.1621 29.8673 37.5367 34.2085 29.9513 34.2085C26.85 34.2085 23.4629 33.2545 21.7455 32.1099L19.9746 27.0054Z" fill="white"/>
<path d="M25.6126 44.5427C25.3233 45.4316 24.367 46.152 23.4792 46.152H15.9415L14.8945 47.2129H25.2454C26.1343 47.2129 27.0906 46.4925 27.3788 45.6036L28.8824 40.8836C29.1717 39.9947 28.686 39.2743 27.7959 39.2743H21.0065L20.9821 39.2487C21.2715 38.3598 22.1534 37.7126 23.0423 37.7126H30.58L31.627 36.6517H21.2761C20.3872 36.6517 19.4309 37.3733 19.1416 38.2611L18.4269 40.4549H27.0837L25.6126 44.5427Z" fill="white"/>
<path d="M57.5432 36.7237C57.8326 35.8348 58.7157 35.1876 59.6046 35.1876H61.9553L63.0022 34.1267H57.7106C56.8217 34.1267 55.6434 34.8483 55.3552 35.736L54.6406 37.9299H57.018" fill="white"/>
<path d="M12.6214 36.6517H2.68881L2.4355 37.7022H10.9842C11.3397 37.7022 11.5338 37.9903 11.4176 38.3471L11.1875 39.05H2.76434C1.87542 39.05 0.919119 39.7705 0.630949 40.6594L0.550772 40.9046L0.504293 40.9882L0.275384 41.625L0.103412 42.1037C-0.216131 42.9926 0.244011 43.7142 1.13408 43.7142H11.693L13.6532 38.2622C13.9716 37.3733 13.5103 36.6517 12.6214 36.6517ZM9.60489 42.5906H3.44177C3.0862 42.5906 2.89215 42.3024 3.00835 41.9469L3.58469 40.183H10.5914L9.60489 42.5906Z" fill="white"/>
<path d="M42.8604 36.6517H32.9279L32.6746 37.7022H41.2232C41.5788 37.7022 41.7728 37.9903 41.6566 38.3471L41.4266 39.05H33.0046C32.1157 39.05 31.1594 39.7705 30.8712 40.6594L30.791 40.9046L30.7445 40.9882L30.5156 41.625L30.3436 42.1037C30.0241 42.9926 30.4842 43.7142 31.3743 43.7142H41.9332L43.8923 38.2622C44.2107 37.3733 43.7494 36.6517 42.8604 36.6517ZM39.8451 42.5906H33.682C33.3264 42.5906 33.1324 42.3024 33.2497 41.9469L33.8261 40.183H40.8328L39.8451 42.5906Z" fill="white"/>
<path d="M55.3622 36.6517H46.9402C46.0513 36.6517 45.095 37.3733 44.8068 38.2611L43.2219 41.6238L43.0487 42.1026C42.7292 42.9915 43.1893 43.7131 44.0794 43.7131H54.6383L57.5432 36.6564L55.3622 36.6517ZM52.5502 42.5906H46.3871C46.0315 42.5906 45.8375 42.3024 45.9537 41.9469L47.7605 37.7858H54.7673L52.5502 42.5906Z" fill="white"/>
<path d="M39.6323 43.2434L38.7713 45.6359C38.4517 46.5248 38.913 47.2453 39.8019 47.2453H44.2616L43.8712 46.1948H41.7296C41.3741 46.1948 41.18 45.9067 41.2962 45.5499L41.5275 44.8469L41.9434 43.7128L42.0782 43.3201L39.6323 43.2434Z" fill="white"/>
<path d="M18.0175 34.1273L14.3004 45.4926C14.1842 45.8482 14.3782 46.1375 14.7338 46.1375H17.9025L18.4277 47.2239H13.2871C12.3982 47.2239 11.9113 46.5047 12.2007 45.6146L15.5762 35.2486L15.761 34.6804L18.0175 34.1273Z" fill="white"/>
</g>
<defs>
<clipPath id="clip0_38_7097">
<rect width="63" height="47.2436" fill="white"/>
</clipPath>
</defs>
</svg>
